<svg width="652" height="429" viewBox="0 0 652 429" fill="none" xmlns="http://www.w3.org/2000/svg">
<rect width="652" height="429" fill="white"/>
<rect width="652" height="429" fill="url(#paint0_radial_5_2)"/>
<path d="M244 140.708C273.666 151.44 272.546 221.946 278.143 225.999C303.891 244.638 301.652 192.108 301.652 192.108C310.048 134.494 340.273 170.987 343.631 194.71C364.901 241.027 359.863 140.708 385.611 128.281C396.246 123.148 402.418 124.736 408 128.281" stroke="url(#paint1_linear_5_2)" stroke-width="12" stroke-linecap="round"/>
<path d="M245 130.601C274.666 141.345 273.546 211.937 279.143 215.994C304.891 234.656 302.652 182.063 302.652 182.063C311.048 124.38 341.273 160.916 344.631 184.668C365.901 231.041 360.863 130.601 386.611 118.159C397.246 113.02 401.826 114.987 409 118.159" stroke="url(#paint2_linear_5_2)" stroke-width="12" stroke-linecap="round"/>
<path d="M236.312 255.28C236.424 255.28 236.504 255.328 236.552 255.424C236.616 255.504 236.624 255.592 236.576 255.688L232.832 267.664C232.8 267.792 232.744 267.88 232.664 267.928C232.6 267.976 232.504 268 232.376 268H230.96C230.656 268 230.472 267.88 230.408 267.64L227.816 259.408C227.768 259.264 227.712 259.192 227.648 259.192C227.6 259.192 227.552 259.264 227.504 259.408L224.984 267.664C224.952 267.792 224.896 267.88 224.816 267.928C224.752 267.976 224.656 268 224.528 268H223.04C222.752 268 222.576 267.88 222.512 267.64L218.696 255.712C218.68 255.68 218.672 255.64 218.672 255.592C218.672 255.512 218.696 255.44 218.744 255.376C218.808 255.312 218.888 255.28 218.984 255.28H220.856C221.064 255.28 221.208 255.384 221.288 255.592L223.928 264.136C223.976 264.28 224.032 264.352 224.096 264.352C224.16 264.352 224.216 264.272 224.264 264.112L226.856 255.568C226.904 255.376 227.04 255.28 227.264 255.28H228.656C228.88 255.28 229.016 255.384 229.064 255.592L231.752 264.136C231.8 264.28 231.856 264.352 231.92 264.352C231.984 264.352 232.04 264.272 232.088 264.112L234.632 255.568C234.712 255.376 234.864 255.28 235.088 255.28H236.312ZM246.89 262.528C246.89 263.248 247.058 263.904 247.394 264.496C247.746 265.072 248.218 265.536 248.81 265.888C249.402 266.224 250.05 266.392 250.754 266.392C251.49 266.392 252.146 266.24 252.722 265.936C253.298 265.632 253.826 265.16 254.306 264.52C254.354 264.456 254.41 264.424 254.474 264.424C254.554 264.424 254.618 264.44 254.666 264.472L255.89 265.048C255.97 265.096 256.01 265.16 256.01 265.24C256.01 265.288 255.986 265.352 255.938 265.432C255.266 266.424 254.498 267.144 253.634 267.592C252.77 268.024 251.722 268.24 250.49 268.24C249.29 268.24 248.218 267.968 247.274 267.424C246.33 266.88 245.594 266.12 245.066 265.144C244.538 264.152 244.274 263.032 244.274 261.784C244.274 260.44 244.546 259.256 245.09 258.232C245.634 257.208 246.37 256.424 247.298 255.88C248.242 255.32 249.29 255.04 250.442 255.04C251.626 255.04 252.666 255.304 253.562 255.832C254.458 256.344 255.146 257.096 255.626 258.088C256.122 259.08 256.37 260.256 256.37 261.616V261.712C256.37 261.856 256.346 261.968 256.298 262.048C256.266 262.112 256.17 262.144 256.01 262.144H247.13C246.97 262.144 246.89 262.272 246.89 262.528ZM253.442 260.632C253.602 260.632 253.706 260.608 253.754 260.56C253.818 260.512 253.85 260.424 253.85 260.296C253.85 259.672 253.714 259.088 253.442 258.544C253.186 258 252.802 257.568 252.29 257.248C251.794 256.912 251.202 256.744 250.514 256.744C249.794 256.744 249.162 256.928 248.618 257.296C248.074 257.648 247.65 258.12 247.346 258.712C247.058 259.288 246.922 259.92 246.938 260.608L253.442 260.632ZM272.186 266.56C271.018 267.68 269.65 268.24 268.082 268.24C266.85 268.24 265.874 267.928 265.154 267.304C264.45 266.664 264.098 265.816 264.098 264.76C264.098 263.464 264.658 262.432 265.778 261.664C266.914 260.896 268.522 260.464 270.602 260.368L272.162 260.248C272.418 260.216 272.546 260.096 272.546 259.888V259.288C272.546 258.504 272.306 257.888 271.826 257.44C271.346 256.976 270.69 256.744 269.858 256.744C268.546 256.744 267.498 257.336 266.714 258.52C266.666 258.616 266.61 258.68 266.546 258.712C266.498 258.728 266.418 258.72 266.306 258.688L264.674 258.208C264.578 258.176 264.53 258.112 264.53 258.016C264.53 257.952 264.554 257.864 264.602 257.752C265.05 256.888 265.73 256.224 266.642 255.76C267.57 255.28 268.682 255.04 269.978 255.04C271.658 255.04 272.914 255.4 273.746 256.12C274.578 256.84 274.994 257.84 274.994 259.12V267.592C274.994 267.752 274.962 267.864 274.898 267.928C274.85 267.976 274.762 268 274.634 268H273.026C272.802 268 272.674 267.84 272.642 267.52L272.594 266.608C272.562 266.48 272.514 266.416 272.45 266.416C272.402 266.416 272.314 266.464 272.186 266.56ZM272.546 262.024C272.546 261.768 272.434 261.648 272.21 261.664L270.914 261.76C269.586 261.84 268.53 262.112 267.746 262.576C266.978 263.024 266.594 263.648 266.594 264.448C266.594 265.072 266.818 265.568 267.266 265.936C267.714 266.288 268.314 266.464 269.066 266.464C269.93 266.464 270.746 266.168 271.514 265.576C272.202 265.016 272.546 264.456 272.546 263.896V262.024ZM288.141 257.104C287.997 257.104 287.925 257.184 287.925 257.344V264.376C287.925 265.048 288.045 265.512 288.285 265.768C288.541 266.024 288.941 266.152 289.485 266.152H291.021C291.213 266.152 291.309 266.248 291.309 266.44V267.472C291.309 267.696 291.189 267.832 290.949 267.88C290.437 267.96 289.621 268 288.501 268C287.445 268 286.661 267.76 286.149 267.28C285.637 266.784 285.381 266.024 285.381 265V257.392C285.381 257.2 285.301 257.104 285.141 257.104H283.341C283.133 257.104 283.029 257.008 283.029 256.816V255.544C283.029 255.368 283.125 255.28 283.317 255.28H285.237C285.365 255.28 285.429 255.208 285.429 255.064L285.717 251.296C285.749 251.072 285.845 250.96 286.005 250.96H287.661C287.869 250.96 287.973 251.088 287.973 251.344V255.064C287.973 255.208 288.045 255.28 288.189 255.28H291.069C291.261 255.28 291.357 255.368 291.357 255.544V256.816C291.357 257.008 291.245 257.104 291.021 257.104H288.141ZM300.197 268C300.053 268 299.949 267.968 299.885 267.904C299.837 267.84 299.813 267.744 299.813 267.616V250.552C299.813 250.312 299.909 250.192 300.101 250.192H301.997C302.189 250.192 302.285 250.296 302.285 250.504V256.84C302.285 257.032 302.365 257.056 302.525 256.912C303.373 256.24 304.117 255.76 304.757 255.472C305.397 255.184 306.093 255.04 306.845 255.04C308.077 255.04 309.021 255.368 309.677 256.024C310.333 256.68 310.661 257.584 310.661 258.736V267.568C310.661 267.856 310.525 268 310.253 268H308.477C308.237 268 308.117 267.872 308.117 267.616V259.216C308.117 258.496 307.933 257.944 307.565 257.56C307.197 257.16 306.637 256.96 305.885 256.96C305.261 256.96 304.693 257.096 304.181 257.368C303.685 257.64 303.077 258.104 302.357 258.76V267.592C302.357 267.864 302.205 268 301.901 268H300.197ZM321.843 262.528C321.843 263.248 322.011 263.904 322.347 264.496C322.699 265.072 323.171 265.536 323.763 265.888C324.355 266.224 325.003 266.392 325.707 266.392C326.443 266.392 327.099 266.24 327.675 265.936C328.251 265.632 328.779 265.16 329.259 264.52C329.307 264.456 329.363 264.424 329.427 264.424C329.507 264.424 329.571 264.44 329.619 264.472L330.843 265.048C330.923 265.096 330.963 265.16 330.963 265.24C330.963 265.288 330.939 265.352 330.891 265.432C330.219 266.424 329.451 267.144 328.587 267.592C327.723 268.024 326.675 268.24 325.443 268.24C324.243 268.24 323.171 267.968 322.227 267.424C321.283 266.88 320.547 266.12 320.019 265.144C319.491 264.152 319.227 263.032 319.227 261.784C319.227 260.44 319.499 259.256 320.043 258.232C320.587 257.208 321.323 256.424 322.251 255.88C323.195 255.32 324.243 255.04 325.395 255.04C326.579 255.04 327.619 255.304 328.515 255.832C329.411 256.344 330.099 257.096 330.579 258.088C331.075 259.08 331.323 260.256 331.323 261.616V261.712C331.323 261.856 331.299 261.968 331.251 262.048C331.219 262.112 331.123 262.144 330.963 262.144H322.083C321.923 262.144 321.843 262.272 321.843 262.528ZM328.395 260.632C328.555 260.632 328.659 260.608 328.707 260.56C328.771 260.512 328.803 260.424 328.803 260.296C328.803 259.672 328.667 259.088 328.395 258.544C328.139 258 327.755 257.568 327.243 257.248C326.747 256.912 326.155 256.744 325.467 256.744C324.747 256.744 324.115 256.928 323.571 257.296C323.027 257.648 322.603 258.12 322.299 258.712C322.011 259.288 321.875 259.92 321.891 260.608L328.395 260.632ZM340.252 268C339.996 268 339.868 267.872 339.868 267.616V255.64C339.868 255.4 339.972 255.28 340.18 255.28H342.028C342.22 255.28 342.316 255.384 342.316 255.592V257.104C342.316 257.2 342.34 257.256 342.388 257.272C342.452 257.288 342.516 257.256 342.58 257.176C343.172 256.488 343.78 255.96 344.404 255.592C345.044 255.224 345.668 255.04 346.276 255.04C346.836 255.04 347.116 255.152 347.116 255.376V257.248C347.116 257.44 347.028 257.52 346.852 257.488C346.548 257.408 346.124 257.368 345.58 257.368C345.132 257.368 344.66 257.496 344.164 257.752C343.668 257.992 343.252 258.312 342.916 258.712C342.58 259.112 342.412 259.52 342.412 259.936V267.592C342.412 267.864 342.26 268 341.956 268H340.252ZM355.767 268C355.511 268 355.383 267.872 355.383 267.616V255.64C355.383 255.4 355.487 255.28 355.695 255.28H357.567C357.759 255.28 357.855 255.384 357.855 255.592V256.912C357.855 257.008 357.879 257.064 357.927 257.08C357.975 257.096 358.031 257.064 358.095 256.984C358.895 256.312 359.607 255.824 360.231 255.52C360.871 255.2 361.559 255.04 362.295 255.04C363.175 255.04 363.903 255.24 364.479 255.64C365.055 256.04 365.463 256.56 365.703 257.2C365.735 257.248 365.767 257.272 365.799 257.272C365.863 257.272 365.935 257.232 366.015 257.152C366.767 256.464 367.487 255.944 368.175 255.592C368.863 255.224 369.583 255.04 370.335 255.04C371.487 255.04 372.383 255.376 373.023 256.048C373.679 256.704 374.007 257.608 374.007 258.76V267.568C374.007 267.856 373.863 268 373.575 268H371.799C371.671 268 371.583 267.976 371.535 267.928C371.487 267.864 371.463 267.76 371.463 267.616V259.216C371.463 258.496 371.287 257.944 370.935 257.56C370.583 257.16 370.055 256.96 369.351 256.96C368.391 256.96 367.367 257.464 366.279 258.472C366.167 258.584 366.087 258.696 366.039 258.808C365.991 258.904 365.967 259.024 365.967 259.168V267.568C365.967 267.856 365.823 268 365.535 268H363.783C363.543 268 363.423 267.872 363.423 267.616V259.216C363.423 258.496 363.247 257.944 362.895 257.56C362.559 257.16 362.031 256.96 361.311 256.96C360.735 256.96 360.199 257.104 359.703 257.392C359.207 257.664 358.615 258.12 357.927 258.76V267.592C357.927 267.736 357.887 267.84 357.807 267.904C357.743 267.968 357.631 268 357.471 268H355.767ZM390.499 266.56C389.331 267.68 387.963 268.24 386.395 268.24C385.163 268.24 384.187 267.928 383.467 267.304C382.763 266.664 382.411 265.816 382.411 264.76C382.411 263.464 382.971 262.432 384.091 261.664C385.227 260.896 386.835 260.464 388.915 260.368L390.475 260.248C390.731 260.216 390.859 260.096 390.859 259.888V259.288C390.859 258.504 390.619 257.888 390.139 257.44C389.659 256.976 389.003 256.744 388.171 256.744C386.859 256.744 385.811 257.336 385.027 258.52C384.979 258.616 384.923 258.68 384.859 258.712C384.811 258.728 384.731 258.72 384.619 258.688L382.987 258.208C382.891 258.176 382.843 258.112 382.843 258.016C382.843 257.952 382.867 257.864 382.915 257.752C383.363 256.888 384.043 256.224 384.955 255.76C385.883 255.28 386.995 255.04 388.291 255.04C389.971 255.04 391.227 255.4 392.059 256.12C392.891 256.84 393.307 257.84 393.307 259.12V267.592C393.307 267.752 393.275 267.864 393.211 267.928C393.163 267.976 393.075 268 392.947 268H391.339C391.115 268 390.987 267.84 390.955 267.52L390.907 266.608C390.875 266.48 390.827 266.416 390.763 266.416C390.715 266.416 390.627 266.464 390.499 266.56ZM390.859 262.024C390.859 261.768 390.747 261.648 390.523 261.664L389.227 261.76C387.899 261.84 386.843 262.112 386.059 262.576C385.291 263.024 384.907 263.648 384.907 264.448C384.907 265.072 385.131 265.568 385.579 265.936C386.027 266.288 386.627 266.464 387.379 266.464C388.243 266.464 389.059 266.168 389.827 265.576C390.515 265.016 390.859 264.456 390.859 263.896V262.024ZM402.853 268C402.597 268 402.469 267.872 402.469 267.616V255.64C402.469 255.4 402.573 255.28 402.781 255.28H404.677C404.869 255.28 404.965 255.384 404.965 255.592V256.912C404.965 257.008 404.981 257.064 405.013 257.08C405.061 257.096 405.125 257.064 405.205 256.984C406.037 256.312 406.773 255.824 407.413 255.52C408.053 255.2 408.749 255.04 409.501 255.04C410.701 255.04 411.637 255.376 412.309 256.048C412.997 256.704 413.341 257.592 413.341 258.712V267.568C413.341 267.856 413.205 268 412.933 268H411.157C410.917 268 410.797 267.872 410.797 267.616V259.216C410.797 258.496 410.605 257.944 410.221 257.56C409.853 257.16 409.293 256.96 408.541 256.96C407.933 256.96 407.365 257.104 406.837 257.392C406.325 257.664 405.717 258.12 405.013 258.76V267.592C405.013 267.736 404.973 267.84 404.893 267.904C404.829 267.968 404.717 268 404.557 268H402.853Z" fill="url(#paint3_linear_5_2)"/>
<defs>
<radialGradient id="paint0_radial_5_2" cx="0" cy="0" r="1" gradientUnits="userSpaceOnUse" gradientTransform="translate(309.752 196.222) rotate(90) scale(211.812 321.915)">
<stop stop-color="#92DBFE" stop-opacity="0.53"/>
<stop offset="0.541667" stop-color="#92DBFE" stop-opacity="0.729479"/>
<stop offset="1" stop-color="#92DBFE"/>
</radialGradient>
<linearGradient id="paint1_linear_5_2" x1="270.339" y1="154.492" x2="426.389" y2="158.444" gradientUnits="userSpaceOnUse">
<stop stop-color="#EDAEDF"/>
<stop offset="1" stop-color="#EDAEDF" stop-opacity="0.56"/>
</linearGradient>
<linearGradient id="paint2_linear_5_2" x1="271.339" y1="144.402" x2="427.389" y2="148.348" gradientUnits="userSpaceOnUse">
<stop offset="0.0127347" stop-color="#5253C6"/>
<stop offset="1" stop-color="#5253C6" stop-opacity="0.56"/>
</linearGradient>
<linearGradient id="paint3_linear_5_2" x1="242.375" y1="272.802" x2="419.375" y2="271.664" gradientUnits="userSpaceOnUse">
<stop stop-color="#5253C6"/>
<stop offset="0.432292" stop-color="#8D06F5"/>
<stop offset="0.598958" stop-color="#C306EA"/>
<stop offset="0.599058" stop-color="#FA5296"/>
<stop offset="1" stop-color="#FA5296"/>
</linearGradient>
</defs>
</svg>
